<svg width="48" height="48" viewBox="0 0 48 48" fill="none" xmlns="http://www.w3.org/2000/svg">
<rect width="48" height="48" rx="10" fill="#4361EE"/>
<path d="M29.44 32.61C29 32.61 28.54 32.48 28.07 32.23L24.14 30.04C23.95 29.94 23.54 29.94 23.35 30.04L19.43 32.23C18.58 32.7 17.71 32.74 17.05 32.35C16.38 31.96 16 31.18 16 30.22V18.86C16 16.73 17.73 15 19.86 15H27.64C29.77 15 31.5 16.73 31.5 18.86V30.22C31.5 31.18 31.12 31.96 30.45 32.35C30.15 32.52 29.81 32.61 29.44 32.61ZM23.75 28.46C24.15 28.46 24.54 28.55 24.87 28.73L28.8 30.92C29.16 31.12 29.49 31.17 29.69 31.05C29.88 30.94 30 30.62 30 30.21V18.85C30 17.55 28.94 16.49 27.64 16.49H19.86C18.56 16.49 17.5 17.55 17.5 18.85V30.21C17.5 30.62 17.62 30.94 17.81 31.05C18 31.16 18.34 31.11 18.7 30.91L22.63 28.72C22.95 28.55 23.35 28.46 23.75 28.46Z" fill="white"/>
</svg>
