<svg width="20" height="20" viewBox="0 0 20 20" fill="none" xmlns="http://www.w3.org/2000/svg">
<path d="M10.0007 11.8083C8.2257 11.8083 6.7757 10.3666 6.7757 8.58327C6.7757 6.79997 8.2257 5.36664 10.0007 5.36664C11.7757 5.36664 13.2257 6.80831 13.2257 8.5916C13.2257 10.3749 11.7757 11.8083 10.0007 11.8083ZM10.0007 6.61664C8.9174 6.61664 8.0257 7.49997 8.0257 8.5916C8.0257 9.68327 8.90906 10.5666 10.0007 10.5666C11.0924 10.5666 11.9757 9.68327 11.9757 8.5916C11.9757 7.49997 11.0841 6.61664 10.0007 6.61664Z" fill="white"/>
<path d="M9.99973 18.9667C8.76639 18.9667 7.52472 18.5 6.55805 17.575C4.09972 15.2084 1.38305 11.4334 2.40805 6.94169C3.33305 2.86669 6.89139 1.04169 9.99973 1.04169C9.99973 1.04169 9.99973 1.04169 10.0081 1.04169C13.1164 1.04169 16.6747 2.86669 17.5997 6.95002C18.6164 11.4417 15.8997 15.2084 13.4414 17.575C12.4747 18.5 11.2331 18.9667 9.99973 18.9667ZM9.99973 2.29169C7.57472 2.29169 4.45805 3.58335 3.63305 7.21669C2.73305 11.1417 5.19972 14.525 7.43305 16.6667C8.87473 18.0584 11.1331 18.0584 12.5747 16.6667C14.7997 14.525 17.2664 11.1417 16.3831 7.21669C15.5497 3.58335 12.4247 2.29169 9.99973 2.29169Z" fill="white"/>
</svg>
