<svg width="31" height="30" viewBox="0 0 31 30" fill="none" xmlns="http://www.w3.org/2000/svg">
<path d="M22.3011 19.2124C22.0636 19.2124 21.8261 19.1249 21.6386 18.9374C21.2761 18.5749 21.2761 17.9749 21.6386 17.6124L24.1761 15.0749L21.6386 12.5374C21.2761 12.1749 21.2761 11.5749 21.6386 11.2124C22.0011 10.8499 22.6011 10.8499 22.9636 11.2124L26.1636 14.4124C26.5261 14.7749 26.5261 15.3749 26.1636 15.7374L22.9636 18.9374C22.7761 19.1249 22.5386 19.2124 22.3011 19.2124Z" fill="white"/>
<path d="M25.4122 16.0126H12.6997C12.1872 16.0126 11.7622 15.5876 11.7622 15.0751C11.7622 14.5626 12.1872 14.1376 12.6997 14.1376H25.4122C25.9247 14.1376 26.3497 14.5626 26.3497 15.0751C26.3497 15.5876 25.9247 16.0126 25.4122 16.0126Z" fill="white"/>
<path d="M15.1997 25.9375C8.76221 25.9375 4.26221 21.4375 4.26221 15C4.26221 8.5625 8.76221 4.0625 15.1997 4.0625C15.7122 4.0625 16.1372 4.4875 16.1372 5C16.1372 5.5125 15.7122 5.9375 15.1997 5.9375C9.86221 5.9375 6.13721 9.6625 6.13721 15C6.13721 20.3375 9.86221 24.0625 15.1997 24.0625C15.7122 24.0625 16.1372 24.4875 16.1372 25C16.1372 25.5125 15.7122 25.9375 15.1997 25.9375Z" fill="white"/>
</svg>
