<svg width="20" height="20" viewBox="0 0 20 20" fill="none" xmlns="http://www.w3.org/2000/svg">
<path d="M12.2417 18.9584C11.875 18.9584 11.4917 18.8501 11.1 18.6417L7.82503 16.8167C7.6667 16.7334 7.325 16.7334 7.16667 16.8167L3.90001 18.6417C3.19168 19.0334 2.46668 19.0667 1.91668 18.7417C1.35835 18.4167 1.04169 17.7667 1.04169 16.9667V7.5001C1.04169 5.7251 2.48335 4.28345 4.25835 4.28345H10.7417C12.5167 4.28345 13.9584 5.7251 13.9584 7.5001V16.9667C13.9584 17.7667 13.6417 18.4167 13.0834 18.7417C12.8334 18.8834 12.55 18.9584 12.2417 18.9584ZM7.50002 15.5001C7.83335 15.5001 8.15835 15.5751 8.43335 15.7251L11.7084 17.5501C12.0084 17.7167 12.2834 17.7584 12.45 17.6584C12.6084 17.5667 12.7084 17.3001 12.7084 16.9584V7.49176C12.7084 6.40842 11.825 5.52511 10.7417 5.52511H4.25835C3.17501 5.52511 2.29169 6.40842 2.29169 7.49176V16.9584C2.29169 17.3001 2.39169 17.5667 2.55002 17.6584C2.70835 17.7501 2.9917 17.7084 3.2917 17.5417L6.56669 15.7167C6.83336 15.5751 7.16669 15.5001 7.50002 15.5001Z" fill="white"/>
<path d="M17.2417 15.7248C16.875 15.7248 16.4917 15.6164 16.1 15.4081L13.025 13.6914C12.825 13.5831 12.7084 13.3748 12.7084 13.1498V7.4998C12.7084 6.41646 11.825 5.53314 10.7417 5.53314H6.66669C6.32502 5.53314 6.04169 5.2498 6.04169 4.90814V4.26645C6.04169 2.49145 7.48335 1.0498 9.25835 1.0498H15.7417C17.5167 1.0498 18.9584 2.49145 18.9584 4.26645V13.7332C18.9584 14.5332 18.6417 15.1831 18.0834 15.5081C17.8334 15.6497 17.55 15.7248 17.2417 15.7248ZM13.9584 12.7747L16.7084 14.3164C17.0084 14.4831 17.2834 14.5248 17.45 14.4248C17.6084 14.3332 17.7084 14.0665 17.7084 13.7248V4.25811C17.7084 3.17478 16.825 2.29146 15.7417 2.29146H9.25835C8.17501 2.29146 7.29169 3.17478 7.29169 4.25811V4.2748H10.7417C12.5167 4.2748 13.9584 5.71645 13.9584 7.49145V12.7747Z" fill="white"/>
</svg>
